<svg width="1114" height="785" viewBox="0 0 1114 785" fill="none" xmlns="http://www.w3.org/2000/svg">
<g clip-path="url(#clip0_3_43)">
<path opacity="0.1" d="M965 784.41C1000.35 784.41 1029 776.803 1029 767.42C1029 758.037 1000.35 750.43 965 750.43C929.654 750.43 901 758.037 901 767.42C901 776.803 929.654 784.41 965 784.41Z" fill="#FE7A28"/>
<path opacity="0.2" d="M1070.55 694.89C1046.2 715.09 1011.55 723.45 978.04 728.73L972.4 729.59C937.4 734.81 902.01 737.59 866.5 739.28C847.5 740.2 828.5 740.85 809.5 741.43L794.61 741.87C775.277 742.443 755.907 743.007 736.5 743.56C717.5 744.1 698.5 744.607 679.5 745.08C655.167 745.673 630.833 746.167 606.5 746.56C587.5 746.86 568.5 747.067 549.5 747.18C525.16 747.32 500.827 747.273 476.5 747.04C457.487 746.847 438.487 746.513 419.5 746.04C395.153 745.413 370.82 744.497 346.5 743.29C329.993 742.483 313.497 741.513 297.01 740.38L289.5 739.85C218.73 734.75 146.69 725.6 84.76 696.68L83.09 695.89C82.26 695.5 81.43 695.11 80.6 694.7C69.2292 689.264 58.3372 682.878 48.04 675.61C29.73 662.55 14.61 646.61 6.62001 627.7C-5.9 598.04 0.720003 564.7 15.02 535.7C29.32 506.7 50.79 480.52 69.36 453.21C74.8 445.21 79.96 436.91 84.76 428.4C114.76 375.03 129.64 313.27 98.19 261.84C94.0388 255.283 89.5563 248.941 84.76 242.84C77.09 232.84 69.29 222.84 64.02 211.77C51.73 186.01 54.37 157.04 58.85 129.52C64.85 92.93 75.85 53.52 110.23 30.66C145.9 6.92 196.53 8.12 240.8 16.66C309.63 29.85 373.16 57.46 437.29 82.36C501.42 107.26 568.6 130.03 639.11 132.48C654.257 132.998 669.421 132.447 684.49 130.83V130.83C704.579 128.766 724.395 124.593 743.61 118.38C771.36 109.24 796.61 95.49 815.33 76.38C855.48 35.53 930.93 32.44 985.33 57.11C1037.24 80.65 1070.81 130.47 1068.33 180.23C1065.51 235.62 1024.03 281.16 986.02 327.87C981.41 333.53 976.86 339.21 972.43 344.93C969.957 348.123 967.53 351.323 965.15 354.53C960.98 360.19 956.95 365.88 953.15 371.64C933.73 401.17 920 436.64 933.37 468.52C940.87 486.37 955.18 499.99 972.43 511.88C1011.08 538.51 1064.43 556.43 1088.43 593.71C1109.11 625.84 1101.45 669.21 1070.55 694.89Z" fill="#FF9D6C"/>
<g opacity="0.1">
<path d="M555.5 549.35C555.54 550.29 555.61 551.21 555.71 552.11C563.49 549.01 571.127 545.677 578.62 542.11C582.619 541.579 586.336 539.761 589.21 536.93C591.4 535.83 593.58 534.68 595.74 533.53C595.251 532.496 594.697 531.494 594.08 530.53C589.87 523.88 583.47 519.72 576.42 519.95C569.37 520.18 563.27 524.75 559.5 531.64C556.608 537.08 555.226 543.195 555.5 549.35V549.35Z" fill="#8AD9F8"/>
<path d="M554.35 514.38C554.501 520.508 556.278 526.485 559.5 531.7C563.72 538.33 570.12 542.49 577.17 542.26C577.66 542.26 578.17 542.19 578.62 542.15C582.619 541.619 586.336 539.801 589.21 536.97C591.16 535.114 592.804 532.961 594.08 530.59C596.901 525.146 598.278 519.069 598.079 512.941C597.879 506.813 596.11 500.839 592.94 495.59C588.72 488.94 582.32 484.78 575.27 485.01C568.22 485.24 562.13 489.81 558.36 496.7C555.47 502.13 554.085 508.234 554.35 514.38V514.38Z" fill="#8AD9F8"/>
<path d="M576.016 507.292C588.088 506.896 597.454 493.764 596.935 477.96C596.417 462.157 586.21 449.667 574.138 450.063C562.066 450.459 552.7 463.592 553.219 479.395C553.738 495.199 563.944 507.689 576.016 507.292Z" fill="#8AD9F8"/>
<path d="M574.87 472.329C586.942 471.933 596.307 458.8 595.789 442.997C595.27 427.193 585.063 414.703 572.991 415.1C560.919 415.496 551.554 428.628 552.072 444.432C552.591 460.235 562.798 472.725 574.87 472.329Z" fill="#8AD9F8"/>
<path d="M573.723 437.355C585.795 436.959 595.161 423.826 594.642 408.023C594.123 392.22 583.917 379.73 571.845 380.126C559.773 380.522 550.407 393.655 550.926 409.458C551.444 425.261 561.651 437.751 573.723 437.355Z" fill="#8AD9F8"/>
<path d="M646.79 166.77C649.651 162.871 652.238 158.778 654.53 154.52L596.79 146.98L658.91 145.4C664.443 132.244 667.233 118.097 667.109 103.826C666.986 89.5542 663.951 75.458 658.19 62.4L576.28 108.35L651.28 49.35C643.644 37.2026 633.595 26.7534 621.754 18.6502C609.913 10.5471 596.534 4.96282 582.447 2.24373C568.359 -0.475366 553.862 -0.271312 539.857 2.84323C525.851 5.95778 512.634 11.9164 501.026 20.3496C489.419 28.7828 479.667 39.5108 472.376 51.8683C465.086 64.2258 460.411 77.9493 458.643 92.1878C456.875 106.426 458.051 120.876 462.098 134.642C466.145 148.407 472.977 161.194 482.17 172.21C477.713 178.28 473.922 184.81 470.86 191.69L546.67 227.97L466.31 203.91C461.271 220.591 460.471 238.265 463.983 255.332C467.494 272.4 475.206 288.323 486.42 301.66C474.786 317.503 467.845 336.301 466.391 355.903C464.936 375.505 469.027 395.121 478.195 412.508C487.363 429.895 501.239 444.351 518.236 454.223C535.233 464.096 554.665 468.987 574.31 468.336C593.956 467.685 613.021 461.52 629.328 450.544C645.634 439.569 658.523 424.226 666.521 406.271C674.519 388.315 677.303 368.472 674.555 349.009C671.806 329.546 663.637 311.249 650.98 296.21C664.891 277.287 672.04 254.239 671.28 230.765C670.52 207.291 661.895 184.754 646.79 166.77V166.77Z" fill="#FE7A28"/>
<path opacity="0.1" d="M461.89 237.63C462.62 261.118 471.264 283.671 486.42 301.63C474.783 317.471 467.838 336.267 466.38 355.869C464.922 375.471 469.009 395.088 478.174 412.477C487.339 429.865 501.213 444.324 518.208 454.2C535.203 464.075 554.634 468.97 574.28 468.323C593.925 467.675 612.992 461.513 629.3 450.541C645.609 439.568 658.501 424.228 666.502 406.274C674.503 388.32 677.29 368.477 674.545 349.013C671.801 329.55 663.634 311.251 650.98 296.21C664.43 277.95 461.51 225.88 461.89 237.63Z" fill="black"/>
</g>
<g opacity="0.1">
<path d="M326.18 733.56C326.18 734.22 326.11 734.88 326.03 735.56C320.497 733.36 315.06 731.003 309.72 728.49C306.875 728.118 304.228 726.83 302.18 724.82C300.62 724.027 299.07 723.22 297.53 722.4C297.878 721.669 298.272 720.961 298.71 720.28C301.71 715.54 306.25 712.58 311.27 712.74C316.29 712.9 320.63 716.14 323.27 721.04C325.337 724.88 326.342 729.202 326.18 733.56V733.56Z" fill="#8AD9F8"/>
<path d="M326.96 708.67C326.862 713.03 325.605 717.286 323.32 721C320.32 725.72 315.77 728.69 310.76 728.53L309.76 728.45C306.915 728.078 304.268 726.79 302.22 724.78C300.829 723.461 299.658 721.929 298.75 720.24C296.744 716.37 295.763 712.05 295.899 707.693C296.036 703.337 297.286 699.087 299.53 695.35C302.53 690.61 307.08 687.65 312.09 687.81C317.1 687.97 321.45 691.21 324.14 696.11C326.183 699.971 327.156 704.307 326.96 708.67Z" fill="#8AD9F8"/>
<path d="M327.768 683.826C328.123 672.582 321.448 663.246 312.859 662.975C304.27 662.703 297.019 671.599 296.663 682.843C296.308 694.087 302.983 703.423 311.572 703.694C320.162 703.966 327.413 695.07 327.768 683.826Z" fill="#8AD9F8"/>
<path d="M328.545 658.94C328.9 647.696 322.225 638.36 313.636 638.089C305.047 637.817 297.796 646.713 297.44 657.957C297.085 669.202 303.76 678.537 312.349 678.809C320.939 679.08 328.19 670.185 328.545 658.94Z" fill="#8AD9F8"/>
<path d="M329.332 634.044C329.688 622.8 323.013 613.465 314.423 613.193C305.834 612.922 298.583 621.817 298.228 633.061C297.872 644.306 304.547 653.641 313.137 653.913C321.726 654.184 328.977 645.289 329.332 634.044Z" fill="#8AD9F8"/>
<path d="M260.91 461.38C258.871 458.606 257.023 455.696 255.38 452.67L296.46 447.21L252.25 446.21C248.299 436.851 246.3 426.783 246.376 416.625C246.451 406.466 248.6 396.429 252.69 387.13L311.02 419.76L257.6 377.81C263.006 369.126 270.142 361.647 278.563 355.839C286.984 350.032 296.511 346.02 306.55 344.053C316.588 342.086 326.925 342.207 336.915 344.407C346.905 346.607 356.335 350.841 364.619 356.843C372.902 362.846 379.862 370.489 385.064 379.297C390.266 388.105 393.599 397.89 394.856 408.042C396.113 418.194 395.267 428.496 392.371 438.308C389.474 448.119 384.589 457.228 378.02 465.07C381.201 469.386 383.907 474.033 386.09 478.93L332.17 504.81L389.34 487.61C392.938 499.479 393.522 512.058 391.04 524.21C388.557 536.362 383.086 547.703 375.12 557.21C383.416 568.473 388.376 581.842 389.432 595.791C390.488 609.739 387.598 623.704 381.092 636.087C374.586 648.47 364.727 658.773 352.642 665.817C340.556 672.862 326.733 676.363 312.751 675.921C298.77 675.48 285.195 671.113 273.578 663.32C261.962 655.527 252.772 644.622 247.061 631.853C241.35 619.083 239.347 604.965 241.281 591.111C243.216 577.257 249.009 564.226 258 553.51C248.086 540.052 242.983 523.653 243.511 506.946C244.039 490.24 250.167 474.195 260.91 461.39V461.38Z" fill="#FE7A28"/>
<path opacity="0.1" d="M392.51 511.64C392.009 528.355 385.881 544.411 375.12 557.21C383.416 568.473 388.376 581.843 389.432 595.791C390.488 609.74 387.598 623.704 381.092 636.087C374.586 648.47 364.727 658.773 352.642 665.817C340.556 672.862 326.733 676.363 312.751 675.921C298.77 675.48 285.195 671.113 273.578 663.32C261.962 655.527 252.772 644.622 247.061 631.853C241.35 619.083 239.347 604.965 241.281 591.111C243.216 577.257 249.009 564.227 258 553.51C248.41 540.51 392.79 503.27 392.51 511.64Z" fill="black"/>
</g>
<g opacity="0.1">
<path d="M846.95 603.51C846.95 604.18 846.88 604.83 846.81 605.51C841.27 603.31 835.833 600.953 830.5 598.44C827.652 598.067 825.003 596.779 822.95 594.77C821.4 593.98 819.84 593.17 818.3 592.35C818.651 591.621 819.045 590.913 819.48 590.23C822.48 585.49 827.02 582.53 832.04 582.69C837.06 582.85 841.4 586.09 844.04 590.99C846.107 594.83 847.112 599.152 846.95 603.51V603.51Z" fill="#8AD9F8"/>
<path d="M847.79 578.62C847.689 582.981 846.429 587.236 844.14 590.95C841.14 595.67 836.6 598.64 831.58 598.48L830.58 598.4C827.732 598.027 825.083 596.739 823.03 594.73C821.643 593.408 820.472 591.875 819.56 590.19C817.554 586.32 816.573 582 816.709 577.643C816.846 573.287 818.096 569.037 820.34 565.3C823.34 560.57 827.89 557.6 832.9 557.76C837.91 557.92 842.27 561.16 844.95 566.06C847 569.919 847.98 574.255 847.79 578.62V578.62Z" fill="#8AD9F8"/>
<path d="M848.571 553.768C848.927 542.524 842.252 533.188 833.663 532.917C825.073 532.645 817.822 541.541 817.467 552.785C817.112 564.03 823.787 573.365 832.376 573.636C840.965 573.908 848.216 565.013 848.571 553.768Z" fill="#8AD9F8"/>
<path d="M849.359 528.882C849.714 517.638 843.039 508.302 834.45 508.031C825.861 507.76 818.61 516.655 818.254 527.899C817.899 539.144 824.574 548.479 833.163 548.751C841.752 549.022 849.003 540.127 849.359 528.882Z" fill="#8AD9F8"/>
<path d="M850.146 503.997C850.501 492.752 843.826 483.417 835.237 483.146C826.648 482.874 819.397 491.77 819.041 503.014C818.686 514.258 825.361 523.594 833.95 523.865C842.539 524.137 849.79 515.241 850.146 503.997Z" fill="#8AD9F8"/>
<path d="M781.68 331.33C779.639 328.559 777.794 325.649 776.16 322.62L817.24 317.21L773.03 316.14C769.081 306.781 767.082 296.714 767.156 286.556C767.23 276.397 769.375 266.361 773.46 257.06L831.79 289.69L778.37 247.76C783.767 239.054 790.899 231.554 799.323 225.727C807.747 219.9 817.282 215.871 827.331 213.893C837.381 211.914 847.731 212.027 857.735 214.226C867.739 216.424 877.183 220.661 885.477 226.671C893.771 232.681 900.738 240.336 905.942 249.158C911.147 257.98 914.478 267.78 915.727 277.947C916.976 288.113 916.117 298.428 913.203 308.247C910.289 318.067 905.382 327.181 898.79 335.02C901.968 339.336 904.67 343.983 906.85 348.88L852.93 374.76L910.1 357.56C913.704 369.427 914.291 382.006 911.808 394.157C909.325 406.308 903.85 417.648 895.88 427.15C904.177 438.411 909.139 451.779 910.196 465.727C911.254 479.674 908.365 493.638 901.86 506.021C895.355 518.404 885.497 528.706 873.413 535.751C861.329 542.795 847.506 546.296 833.526 545.854C819.545 545.413 805.971 541.045 794.355 533.252C782.74 525.459 773.552 514.555 767.842 501.786C762.132 489.017 760.131 474.899 762.067 461.046C764.003 447.193 769.798 434.164 778.79 423.45C768.876 409.992 763.773 393.593 764.301 376.886C764.829 360.18 770.957 344.135 781.7 331.33H781.68Z" fill="#FE7A28"/>
<path opacity="0.1" d="M913.29 381.59C912.789 398.303 906.658 414.358 895.89 427.15C904.186 438.411 909.145 451.779 910.202 465.726C911.258 479.673 908.369 493.636 901.864 506.018C895.359 518.4 885.501 528.702 873.417 535.745C861.333 542.789 847.511 546.29 833.531 545.848C819.551 545.406 805.978 541.04 794.363 533.247C782.747 525.455 773.559 514.551 767.849 501.783C762.139 489.015 760.137 474.898 762.071 461.046C764.006 447.193 769.8 434.165 778.79 423.45C769.19 410.46 913.55 373.21 913.29 381.59Z" fill="black"/>
</g>
<path d="M193.5 761.85C224.986 761.85 250.51 756.943 250.51 750.89C250.51 744.837 224.986 739.93 193.5 739.93C162.014 739.93 136.49 744.837 136.49 750.89C136.49 756.943 162.014 761.85 193.5 761.85Z" fill="#2F81A0"/>
<path d="M192.55 754.92C196.217 754.92 199.19 751.029 199.19 746.23C199.19 741.431 196.217 737.54 192.55 737.54C188.883 737.54 185.91 741.431 185.91 746.23C185.91 751.029 188.883 754.92 192.55 754.92Z" fill="#8AD9F8"/>
<path d="M192.55 744.3C196.217 744.3 199.19 740.409 199.19 735.61C199.19 730.811 196.217 726.92 192.55 726.92C188.883 726.92 185.91 730.811 185.91 735.61C185.91 740.409 188.883 744.3 192.55 744.3Z" fill="#8AD9F8"/>
<path d="M192.55 733.68C196.217 733.68 199.19 729.789 199.19 724.99C199.19 720.191 196.217 716.3 192.55 716.3C188.883 716.3 185.91 720.191 185.91 724.99C185.91 729.789 188.883 733.68 192.55 733.68Z" fill="#8AD9F8"/>
<path d="M192.55 723.06C196.217 723.06 199.19 719.169 199.19 714.37C199.19 709.571 196.217 705.68 192.55 705.68C188.883 705.68 185.91 709.571 185.91 714.37C185.91 719.169 188.883 723.06 192.55 723.06Z" fill="#8AD9F8"/>
<path d="M192.55 712.44C196.217 712.44 199.19 708.549 199.19 703.75C199.19 698.951 196.217 695.06 192.55 695.06C188.883 695.06 185.91 698.951 185.91 703.75C185.91 708.549 188.883 712.44 192.55 712.44Z" fill="#8AD9F8"/>
<path d="M192.55 701.82C196.217 701.82 199.19 697.929 199.19 693.13C199.19 688.331 196.217 684.44 192.55 684.44C188.883 684.44 185.91 688.331 185.91 693.13C185.91 697.929 188.883 701.82 192.55 701.82Z" fill="#8AD9F8"/>
<path d="M192.55 691.2C196.217 691.2 199.19 687.309 199.19 682.51C199.19 677.711 196.217 673.82 192.55 673.82C188.883 673.82 185.91 677.711 185.91 682.51C185.91 687.309 188.883 691.2 192.55 691.2Z" fill="#8AD9F8"/>
<path d="M217.4 609.83C218.305 608.674 219.13 607.458 219.87 606.19L202.43 603.32L221.29 603.47C223.099 599.531 224.086 595.266 224.191 590.933C224.295 586.6 223.516 582.291 221.9 578.27L196.59 591.4L219.93 574.21C217.742 570.434 214.799 567.149 211.287 564.559C207.774 561.97 203.765 560.131 199.511 559.157C195.257 558.184 190.848 558.096 186.558 558.9C182.269 559.704 178.191 561.382 174.578 563.831C170.965 566.279 167.895 569.445 165.558 573.131C163.222 576.817 161.669 580.944 160.996 585.257C160.324 589.569 160.547 593.973 161.65 598.195C162.753 602.418 164.714 606.368 167.41 609.8C166 611.599 164.786 613.543 163.79 615.6L186.43 627.36L162.29 619.26C160.594 624.271 160.174 629.625 161.068 634.838C161.962 640.052 164.142 644.961 167.41 649.12C163.722 653.811 161.429 659.445 160.792 665.378C160.155 671.311 161.2 677.303 163.808 682.67C166.415 688.037 170.48 692.563 175.538 695.728C180.596 698.894 186.443 700.573 192.41 700.573C198.377 700.573 204.224 698.894 209.282 695.728C214.34 692.563 218.405 688.037 221.013 682.67C223.62 677.303 224.665 671.311 224.028 665.378C223.391 659.445 221.098 653.811 217.41 649.12C221.815 643.514 224.21 636.59 224.21 629.46C224.21 622.33 221.815 615.406 217.41 609.8L217.4 609.83Z" fill="#2F81A0"/>
<path opacity="0.1" d="M160.61 629.49C160.598 636.622 162.994 643.549 167.41 649.15C163.722 653.841 161.429 659.475 160.792 665.408C160.155 671.341 161.2 677.333 163.807 682.7C166.415 688.067 170.48 692.592 175.538 695.758C180.596 698.924 186.443 700.603 192.41 700.603C198.377 700.603 204.224 698.924 209.282 695.758C214.34 692.592 218.405 688.067 221.012 682.7C223.62 677.333 224.665 671.341 224.028 665.408C223.391 659.475 221.098 653.841 217.41 649.15C221.66 643.74 160.61 625.92 160.61 629.49Z" fill="black"/>
<path d="M346.5 517.21V743.21C329.993 742.403 313.497 741.433 297.01 740.3L289.5 739.77V517.21C289.5 516.052 289.728 514.905 290.171 513.835C290.615 512.765 291.264 511.792 292.083 510.973C292.902 510.154 293.875 509.505 294.945 509.061C296.015 508.618 297.162 508.39 298.32 508.39H337.68C338.838 508.39 339.985 508.618 341.055 509.061C342.125 509.505 343.098 510.154 343.917 510.973C344.736 511.792 345.385 512.765 345.829 513.835C346.272 514.905 346.5 516.052 346.5 517.21V517.21Z" fill="#8AD9F8"/>
<path d="M419.5 746.02V366.21C419.5 363.871 420.429 361.627 422.083 359.973C423.737 358.319 425.981 357.39 428.32 357.39H467.68C468.838 357.39 469.985 357.618 471.055 358.061C472.125 358.505 473.098 359.154 473.917 359.973C474.736 360.792 475.385 361.765 475.829 362.835C476.272 363.905 476.5 365.052 476.5 366.21V747.01L419.5 746.02Z" fill="#8AD9F8"/>
<path d="M549.5 747.21V445.21C549.5 442.871 550.429 440.627 552.083 438.973C553.737 437.319 555.981 436.39 558.32 436.39H597.68C600.019 436.39 602.263 437.319 603.917 438.973C605.571 440.627 606.5 442.871 606.5 445.21V746.56L549.5 747.21Z" fill="#8AD9F8"/>
<path d="M736.5 221.21V743.56C717.5 744.1 698.5 744.607 679.5 745.08V221.21C679.5 218.871 680.429 216.627 682.083 214.973C683.737 213.319 685.981 212.39 688.32 212.39H727.68C730.019 212.39 732.263 213.319 733.917 214.973C735.571 216.627 736.5 218.871 736.5 221.21V221.21Z" fill="#8AD9F8"/>
<path d="M866.5 326.21V739.21C847.5 740.13 828.5 740.78 809.5 741.36V326.21C809.5 323.871 810.429 321.627 812.083 319.973C813.737 318.319 815.981 317.39 818.32 317.39H857.68C860.019 317.39 862.263 318.319 863.917 319.973C865.571 321.627 866.5 323.871 866.5 326.21V326.21Z" fill="#8AD9F8"/>
<path d="M318.5 385.41L448.5 240.41L578.5 313.41L708.5 89.41L838.5 196.41" stroke="#8AD9F8" stroke-width="7" stroke-miterlimit="10" stroke-linecap="round"/>
<path d="M318 413.41C333.464 413.41 346 400.874 346 385.41C346 369.946 333.464 357.41 318 357.41C302.536 357.41 290 369.946 290 385.41C290 400.874 302.536 413.41 318 413.41Z" fill="#FFE15B"/>
<path d="M448 268.41C463.464 268.41 476 255.874 476 240.41C476 224.946 463.464 212.41 448 212.41C432.536 212.41 420 224.946 420 240.41C420 255.874 432.536 268.41 448 268.41Z" fill="#FFE15B"/>
<path d="M578 341.41C593.464 341.41 606 328.874 606 313.41C606 297.946 593.464 285.41 578 285.41C562.536 285.41 550 297.946 550 313.41C550 328.874 562.536 341.41 578 341.41Z" fill="#FFE15B"/>
<path d="M708 117.41C723.464 117.41 736 104.874 736 89.41C736 73.946 723.464 61.41 708 61.41C692.536 61.41 680 73.946 680 89.41C680 104.874 692.536 117.41 708 117.41Z" fill="#FFE15B"/>
<path d="M958 355.41C973.464 355.41 986 342.874 986 327.41C986 311.946 973.464 299.41 958 299.41C942.536 299.41 930 311.946 930 327.41C930 342.874 942.536 355.41 958 355.41Z" fill="#FFE15B"/>
<path opacity="0.1" d="M233.68 725.77C243.997 725.77 252.36 724.355 252.36 722.61C252.36 720.865 243.997 719.45 233.68 719.45C223.363 719.45 215 720.865 215 722.61C215 724.355 223.363 725.77 233.68 725.77Z" fill="#FE7A28"/>
<path d="M221.14 707.94C221.14 707.94 231.79 707.61 235 705.32C238.21 703.03 251.39 700.32 252.19 703.97C252.99 707.62 268.19 722.21 256.19 722.31C244.19 722.41 228.24 720.43 225.04 718.48C221.84 716.53 221.14 707.94 221.14 707.94Z" fill="#A8A8A8"/>
<path opacity="0.2" d="M256.38 721.03C244.38 721.13 228.44 719.16 225.23 717.21C222.79 715.72 221.82 710.39 221.49 707.93H221.14C221.14 707.93 221.81 716.52 225.02 718.47C228.23 720.42 244.14 722.4 256.17 722.3C259.64 722.3 260.84 721.04 260.77 719.21C260.29 720.32 258.97 721.01 256.38 721.03Z" fill="black"/>
<path opacity="0.1" d="M1063.8 755.21C1082.75 755.21 1098.11 752.613 1098.11 749.41C1098.11 746.207 1082.75 743.61 1063.8 743.61C1044.85 743.61 1029.49 746.207 1029.49 749.41C1029.49 752.613 1044.85 755.21 1063.8 755.21Z" fill="#FE7A28"/>
<path d="M1040.79 722.46C1040.79 722.46 1060.36 721.86 1066.26 717.66C1072.16 713.46 1096.36 708.45 1097.82 715.18C1099.28 721.91 1127.24 748.68 1105.14 748.86C1083.04 749.04 1053.8 745.42 1047.91 741.86C1042.02 738.3 1040.79 722.46 1040.79 722.46Z" fill="#A8A8A8"/>
<path opacity="0.2" d="M1105.51 746.52C1083.41 746.7 1054.17 743.08 1048.28 739.52C1043.8 736.79 1042.01 726.99 1041.41 722.52H1040.76C1040.76 722.52 1042 738.31 1047.88 741.89C1053.76 745.47 1083.02 749.1 1105.11 748.89C1111.49 748.89 1113.69 746.57 1113.57 743.21C1112.68 745.21 1110.25 746.48 1105.51 746.52Z" fill="black"/>
<path d="M849.6 344.58C849.786 346.331 850.481 347.99 851.6 349.35C853.05 350.99 855.22 351.74 857.17 352.72C862.216 355.303 866.071 359.734 867.93 365.09C871.26 374.81 871.69 385.09 875.93 394.47C880.17 403.85 885.15 412.86 888.81 422.47C890.89 427.92 892.55 433.59 895.6 438.55C897.077 440.989 898.961 443.157 901.17 444.96C900.94 448.48 900.85 451.96 900.87 455.48C901.546 455.467 902.214 455.625 902.812 455.94C903.41 456.254 903.918 456.715 904.29 457.28C905.03 458.42 905.54 459.694 905.79 461.03C907.16 466.7 905.47 472.74 906.7 478.44C910.079 494.295 909.042 510.774 903.7 526.08C902.33 529.96 900.61 542.8 902.07 546.65C907.51 546.1 912.33 549.44 917.42 551.65C917.832 554.667 917.586 557.737 916.7 560.65C914.87 565.92 914.88 571.65 914.91 577.22L915.16 618.48C915.16 623.71 915.23 629.01 916.54 634.08C918.03 639.79 921.16 645.61 921.06 651.51C920.79 664.21 926.79 676.31 926.31 688.91C926.22 691.33 925.89 693.73 925.66 696.13C925.069 702.523 925.231 708.964 926.14 715.32C927.96 727.98 932.77 740.43 931.57 753.16C931.49 754.02 931.2 755.16 930.39 755.49C931.39 756.62 932.45 757.74 933.53 758.81C933.311 759.174 933.014 759.485 932.66 759.72C931.478 760.337 930.172 760.679 928.84 760.72C927.277 760.761 925.759 761.254 924.47 762.14C923.533 763.039 922.897 764.206 922.65 765.48C922.294 766.739 922.217 768.061 922.425 769.352C922.632 770.644 923.118 771.875 923.85 772.96C924.743 774.084 925.91 774.959 927.24 775.5C931.86 777.5 937.16 776.05 941.98 774.59L960.86 768.87C962.012 768.631 963.074 768.077 963.93 767.27C964.322 766.807 964.581 766.248 964.68 765.65C968.85 766.65 973.43 765.42 977.68 764.15L996.56 758.42C997.713 758.185 998.777 757.631 999.63 756.82C999.97 756.407 1000.21 755.924 1000.35 755.405C1000.48 754.887 1000.5 754.346 1000.4 753.82C1000.54 753.76 1000.68 753.72 1000.82 753.65C1002.26 753 1003.82 751.73 1003.47 750.2C1003.22 749.2 1002.22 748.62 1001.79 747.7C1001.59 747.102 1001.55 746.461 1001.67 745.842C1001.79 745.222 1002.07 744.646 1002.49 744.17C1003.23 743.17 1004.23 742.34 1004.91 741.29C1007.09 737.95 1005.61 733.56 1004.79 729.65C1003.02 721.3 1004.66 712.58 1003.54 704.12C1003.16 701.27 1002.47 698.47 1001.92 695.64C1000.75 688.951 999.983 682.199 999.61 675.42C998.89 665.74 996.2 656.2 997.74 646.6C998.488 640.966 998.805 635.283 998.69 629.6C998.799 625.98 998.642 622.357 998.22 618.76C997.83 616.08 997.14 613.45 996.84 610.76C996.597 607.736 996.543 604.7 996.68 601.67C996.818 594.915 996.194 588.166 994.82 581.55C992.82 572.46 989.06 563.76 987.46 554.65C988 554.77 988.54 554.89 989.06 555.03C989.12 548.03 982.99 532.81 980.72 526.17C980.388 525.357 980.185 524.496 980.12 523.62C980.257 522.464 980.468 521.319 980.75 520.19C981.04 517.77 979.75 515.47 979.4 513.05C979.264 511.348 979.388 509.635 979.77 507.97C981.38 499.02 983.38 490.14 985.38 481.27C986.252 478.057 986.553 474.717 986.27 471.4C986.038 469.642 986.185 467.855 986.703 466.159C987.22 464.463 988.096 462.898 989.27 461.57C990.149 460.759 990.897 459.818 991.49 458.78C991.823 457.889 991.972 456.94 991.93 455.99C991.89 451.877 991.285 447.788 990.13 443.84C991.89 440.65 992.54 436.73 993.05 433.03C994.17 424.86 995.29 416.65 995.25 408.4C995.339 403.999 994.732 399.611 993.45 395.4C992.514 392.799 991.37 390.278 990.03 387.86C984.77 377.73 979.74 367.07 973.1 357.79C971.1 354.97 972.36 351.08 972.5 347.6C972.65 343.4 970.99 339.37 969.36 335.51C968.528 333.134 967.252 330.939 965.6 329.04C965.041 328.425 964.363 327.93 963.606 327.586C962.85 327.243 962.031 327.057 961.2 327.04C960.258 327.155 959.353 327.471 958.543 327.966C957.734 328.461 957.041 329.124 956.51 329.91C955.301 331.557 954.43 333.428 953.947 335.414C953.465 337.4 953.381 339.461 953.7 341.48C954.364 345.521 956.125 349.301 958.79 352.41C960.077 353.974 961.552 355.375 963.18 356.58C964.833 361.833 966.5 367.083 968.18 372.33C970.82 380.68 973.46 389.07 977.18 396.97C978.27 399.26 979.47 401.59 979.6 404.12C979.74 406.85 978.6 409.45 977.69 412.02C975.773 417.376 974.687 422.995 974.47 428.68C974.178 428.81 973.897 428.963 973.63 429.14C970.48 431.2 969.49 435.69 966.21 437.53C964.3 438.6 961.98 438.53 959.84 439.02C959.65 439.02 959.46 439.12 959.26 439.18C959.18 438.78 959.1 438.39 959.05 437.98C959.019 437.724 959.019 437.466 959.05 437.21C964.149 434.407 968.432 430.327 971.48 425.37C972.122 424.452 972.618 423.44 972.95 422.37C973.22 421.088 973.271 419.769 973.1 418.47C972.933 414.134 972.313 409.827 971.25 405.62C970.183 401.393 967.849 397.593 964.56 394.73C962.92 393.41 961.03 392.42 959.4 391.09C956.22 388.52 954.04 384.72 950.4 382.81C948.084 381.682 945.441 381.416 942.946 382.062C940.452 382.707 938.269 384.22 936.79 386.33C936.306 387.306 935.625 388.17 934.79 388.87C934.153 389.171 933.532 389.505 932.93 389.87C931.83 390.75 931.77 392.44 932.13 393.81C932.812 396.625 933.194 399.504 933.27 402.4C930.043 406.187 928.265 410.998 928.254 415.974C928.243 420.95 929.999 425.768 933.21 429.57C933.21 431.43 933.21 433.29 933.14 435.15C933.14 435.5 933.14 435.86 933.07 436.21C931.917 435.808 930.885 435.12 930.07 434.21C928.95 432.81 928.75 430.75 927.38 429.6C926.395 428.95 925.272 428.54 924.1 428.4C921.188 427.738 918.457 426.444 916.1 424.61C914.25 423.18 912.33 421.35 910.17 420.93C906.443 413.939 902.092 407.298 897.17 401.09C895.922 399.62 894.785 398.059 893.77 396.42C891.62 392.67 890.98 388.26 889.62 384.15C885.82 372.63 876.34 363.39 874.03 351.47C873.19 347.15 870.45 343.39 868.57 339.41C867.3 336.72 865.9 333.88 863.36 332.34C860.09 330.34 855.57 331.26 852.85 333.95C851.533 335.357 850.556 337.046 849.993 338.888C849.429 340.731 849.295 342.678 849.6 344.58ZM968.33 749.27C967.148 749.887 965.842 750.229 964.51 750.27C963.838 750.34 963.17 750.447 962.51 750.59C962.26 748.49 962.12 746.36 961.96 744.29C961.43 737.5 960.37 730.76 959.32 724.03C958.22 717.03 957.7 709.37 955.32 702.65C951.49 691.71 947.61 680.44 948.1 668.85C948.21 666.22 948.54 663.61 948.68 660.99C949 654.5 948.09 647.87 949.68 641.56C950.39 638.69 951.6 635.95 952.06 633.03C952.353 630.393 952.387 627.734 952.16 625.09C951.723 615.913 952.486 606.719 954.43 597.74C956.29 600.17 956.9 603.31 957.43 606.32L961.18 626.66C963.41 638.73 965.38 651.53 971.29 662.27C970.46 666.14 969.64 670.27 971.01 673.97C971.6 675.57 972.57 676.97 973.17 678.59C974.17 681.28 974.03 684.24 974.33 687.09C974.98 693.09 977.46 698.99 975.64 704.78C973.768 710.75 972.551 716.906 972.01 723.14C971.911 724.874 971.71 726.6 971.41 728.31C971.09 729.85 970.57 731.31 970.28 732.89C969.88 735.107 969.979 737.386 970.57 739.56C971.019 740.765 971.295 742.028 971.39 743.31C971.39 744.59 969.82 745.51 968.56 745.71C968.93 746.19 969.33 746.65 969.74 747.1C969.499 747.949 969.008 748.705 968.33 749.27V749.27Z" fill="url(#paint0_linear_3_43)"/>
<path d="M928.84 760.81C927.277 760.851 925.759 761.344 924.47 762.23C923.53 763.118 922.893 764.28 922.65 765.55C922.295 766.799 922.219 768.111 922.426 769.393C922.634 770.675 923.12 771.896 923.85 772.97C924.743 774.091 925.911 774.962 927.24 775.5C931.86 777.5 937.16 776.04 941.98 774.59L960.86 768.91C962.011 768.675 963.074 768.124 963.93 767.32C964.45 766.62 964.737 765.775 964.751 764.903C964.766 764.031 964.506 763.177 964.01 762.46C962.996 761.049 961.612 759.945 960.01 759.27C954.14 756.41 947.52 755.76 941.07 755.64C938.67 755.64 936.3 755.06 934.67 756.91C933.81 757.91 933.97 758.98 932.67 759.83C931.482 760.437 930.174 760.771 928.84 760.81V760.81Z" fill="#8AD9F8"/>
<path d="M964.51 750.43C962.947 750.476 961.431 750.968 960.14 751.85C959.202 752.74 958.566 753.901 958.32 755.17C957.966 756.421 957.89 757.734 958.097 759.018C958.304 760.302 958.79 761.524 959.52 762.6C960.417 763.715 961.584 764.582 962.91 765.12C967.54 767.12 972.83 765.67 977.65 764.22L996.53 758.53C997.681 758.295 998.744 757.744 999.6 756.94C1000.12 756.242 1000.41 755.398 1000.42 754.528C1000.43 753.658 1000.18 752.805 999.68 752.09C998.665 750.68 997.281 749.576 995.68 748.9C989.8 746.04 983.18 745.38 976.73 745.26C974.33 745.26 971.97 744.69 970.33 746.54C969.47 747.54 969.63 748.6 968.33 749.45C967.148 750.065 965.842 750.4 964.51 750.43V750.43Z" fill="#8AD9F8"/>
<path d="M948.1 545.53C959.226 544.412 970.419 544.098 981.59 544.59C982.327 544.582 983.06 544.697 983.76 544.93C986.22 545.93 986.6 549.15 986.83 551.78C987.83 562.46 992.49 572.41 994.83 582.87C996.204 589.445 996.828 596.154 996.69 602.87C996.555 605.87 996.608 608.876 996.85 611.87C997.15 614.54 997.85 617.16 998.23 619.82C998.652 623.394 998.809 626.993 998.7 630.59C998.814 636.229 998.497 641.869 997.75 647.46C996.21 656.99 998.9 666.46 999.62 676.1C999.979 682.842 1000.74 689.557 1001.89 696.21C1002.44 699.02 1003.13 701.8 1003.51 704.63C1004.63 713.04 1002.99 721.7 1004.76 730C1005.58 733.88 1007.06 738.24 1004.88 741.56C1004.2 742.56 1003.2 743.41 1002.46 744.42C1002.04 744.892 1001.76 745.465 1001.64 746.081C1001.52 746.697 1001.56 747.335 1001.76 747.93C1002.19 748.84 1003.19 749.44 1003.44 750.41C1003.83 751.94 1002.23 753.19 1000.79 753.84C989.94 758.74 975.95 755.29 968.63 745.9C969.89 745.7 971.43 744.79 971.46 743.51C971.364 742.237 971.088 740.985 970.64 739.79C970.051 737.633 969.952 735.371 970.35 733.17C970.64 731.63 971.16 730.17 971.48 728.62C971.78 726.92 971.981 725.204 972.08 723.48C972.621 717.286 973.838 711.169 975.71 705.24C977.53 699.49 975.05 693.67 974.4 687.67C974.1 684.83 974.23 681.9 973.24 679.22C972.64 677.64 971.67 676.22 971.08 674.64C969.71 670.95 970.53 666.85 971.36 663.01C965.45 652.34 963.48 639.62 961.25 627.63L957.5 607.43C956.94 604.43 956.33 601.32 954.5 598.9C952.556 607.818 951.793 616.953 952.23 626.07C952.457 628.697 952.423 631.34 952.13 633.96C951.67 636.86 950.46 639.59 949.75 642.43C948.2 648.7 949.11 655.28 948.75 661.73C948.61 664.34 948.28 666.93 948.17 669.54C947.68 681.06 951.56 692.26 955.39 703.13C957.74 709.8 958.26 717.38 959.39 724.36C960.39 731.05 961.5 737.74 962.03 744.49C962.52 750.69 962.74 757.4 966.6 762.27C963.07 764.56 959.43 766.89 955.3 767.68C950.487 768.433 945.562 767.478 941.38 764.98C937.221 762.493 933.504 759.334 930.38 755.63C931.19 755.35 931.48 754.17 931.56 753.32C932.76 740.66 927.95 728.32 926.13 715.72C925.22 709.408 925.059 703.01 925.65 696.66C925.88 694.27 926.21 691.88 926.3 689.48C926.78 676.97 920.75 664.92 920.97 652.4C921.07 646.53 917.97 640.75 916.45 635.08C915.14 630.08 915.1 624.78 915.07 619.58L914.82 578.58C914.82 573.04 914.82 567.36 916.61 562.13C918.81 555.83 916.29 548.6 915.91 541.94C926.301 545.233 937.238 546.453 948.1 545.53V545.53Z" fill="#2F81A0"/>
<path d="M912.45 427.73C908.247 419.137 903.113 411.032 897.14 403.56C895.892 402.101 894.756 400.55 893.74 398.92C891.59 395.19 890.95 390.81 889.59 386.73C885.79 375.29 876.31 366.1 874 354.27C873.16 349.97 870.42 346.27 868.54 342.27C867.27 339.6 865.87 336.78 863.33 335.27C860.06 333.27 855.54 334.19 852.82 336.87C851.511 338.265 850.541 339.941 849.982 341.77C849.424 343.599 849.293 345.532 849.6 347.42C849.787 349.162 850.483 350.81 851.6 352.16C853.05 353.79 855.22 354.53 857.17 355.51C862.209 358.064 866.064 362.468 867.93 367.8C871.26 377.45 871.69 387.67 875.93 396.99C880.17 406.31 885.15 415.25 888.81 424.78C890.89 430.19 892.55 435.78 895.6 440.78C898.65 445.78 903.41 449.97 909.16 450.72C909.121 447.095 909.672 443.488 910.79 440.04C912.04 436.1 914.26 431.46 912.45 427.73Z" fill="#A0616A"/>
<path d="M974.36 435.21C974.103 428.139 975.206 421.085 977.61 414.43C978.53 411.88 979.61 409.29 979.52 406.58C979.39 404.06 978.19 401.75 977.1 399.47C973.34 391.62 970.7 383.3 968.1 375L963.1 359.35C961.47 358.155 959.995 356.76 958.71 355.2C956.045 352.118 954.283 348.36 953.62 344.34C953.301 342.336 953.385 340.288 953.868 338.317C954.35 336.345 955.221 334.49 956.43 332.86C956.963 332.077 957.657 331.416 958.466 330.923C959.275 330.43 960.18 330.115 961.12 330C961.951 330.018 962.769 330.205 963.525 330.549C964.281 330.893 964.96 331.386 965.52 332C967.17 333.882 968.446 336.061 969.28 338.42C970.91 342.26 972.57 346.26 972.42 350.42C972.28 353.88 970.99 357.74 973.02 360.55C979.66 369.77 984.69 380.36 989.95 390.43C991.292 392.83 992.435 395.334 993.37 397.92C994.655 402.11 995.262 406.478 995.17 410.86C995.17 419.05 994.09 427.21 992.97 435.33C992.26 440.42 991.33 445.96 987.48 449.33C983.48 444.21 979.46 439.21 974.36 435.21Z" fill="#A0616A"/>
<path d="M948.92 439.11C960.38 439.11 969.67 429.82 969.67 418.36C969.67 406.9 960.38 397.61 948.92 397.61C937.46 397.61 928.17 406.9 928.17 418.36C928.17 429.82 937.46 439.11 948.92 439.11Z" fill="#A0616A"/>
<path d="M958.97 440.21C959.47 443.96 961.48 447.32 963.44 450.56C964.62 452.56 966.13 454.69 968.44 454.91C962.428 458.065 956.113 460.605 949.59 462.49C947.373 463.235 945.049 463.61 942.71 463.6C940.728 463.452 938.788 462.954 936.98 462.13C933.025 460.408 929.513 457.81 926.708 454.532C923.904 451.255 921.88 447.384 920.79 443.21C923.373 443.279 925.957 443.081 928.5 442.62C929.952 442.508 931.306 441.842 932.28 440.76C932.859 439.746 933.131 438.585 933.06 437.42C933.16 433.96 933.17 430.49 933.06 427.03C938.159 426.705 943.273 427.336 948.14 428.89C950.14 429.54 952.14 430.32 954.14 430.83C955.4 431.15 958.87 430.83 959.8 431.56C961.33 432.59 958.62 437.66 958.97 440.21Z" fill="#A0616A"/>
<path d="M949.85 452.82C950.077 450.086 951.16 447.493 952.944 445.409C954.729 443.325 957.124 441.856 959.79 441.21C961.93 440.73 964.25 440.79 966.16 439.73C969.44 437.9 970.43 433.44 973.58 431.39C976.73 429.34 981.2 430.48 983.94 433.07C986.68 435.66 988.07 439.35 989.19 442.96C990.862 447.841 991.769 452.952 991.88 458.11C991.922 459.054 991.772 459.996 991.44 460.88C990.847 461.912 990.098 462.846 989.22 463.65C988.047 464.967 987.171 466.521 986.653 468.208C986.136 469.894 985.988 471.672 986.22 473.42C986.504 476.714 986.203 480.031 985.33 483.22C983.33 492.04 981.33 500.85 979.72 509.75C979.342 511.388 979.217 513.074 979.35 514.75C979.66 517.16 980.99 519.44 980.7 521.85C980.417 522.972 980.206 524.111 980.07 525.26C980.135 526.13 980.338 526.984 980.67 527.79C982.94 534.38 989.07 549.48 989.01 556.46C978.36 553.73 962.66 553.12 951.66 553.07C948.635 553.038 945.61 553.172 942.6 553.47C935.37 554.25 927.97 556.36 920.96 554.41C914.45 552.6 908.69 547.41 901.96 548.06C900.5 544.24 902.22 531.49 903.59 527.63C908.931 512.431 909.969 496.052 906.59 480.3C905.36 474.64 907.05 468.63 905.68 463.01C905.43 461.68 904.92 460.413 904.18 459.28C903.807 458.717 903.298 458.258 902.7 457.945C902.102 457.632 901.435 457.476 900.76 457.49C900.635 448.45 901.473 439.423 903.26 430.56C903.92 427.41 905.26 423.69 908.49 423.15C911.35 422.66 913.75 425.08 916.05 426.85C918.408 428.675 921.14 429.959 924.05 430.61C925.222 430.75 926.345 431.16 927.33 431.81C928.7 432.95 928.9 435 930.02 436.39C932.02 438.88 936.49 438.67 937.91 441.54C938.22 442.395 938.471 443.27 938.66 444.16C939.332 445.865 940.477 447.343 941.96 448.42C944.187 450.514 946.898 452.026 949.85 452.82Z" fill="#FE7A28"/>
<path d="M932.06 396.3C931.7 394.93 931.76 393.3 932.86 392.38C933.41 391.95 934.13 391.79 934.72 391.38C935.551 390.681 936.232 389.82 936.72 388.85C938.212 386.762 940.396 385.27 942.884 384.638C945.371 384.006 948.002 384.276 950.31 385.4C953.92 387.29 956.1 391.07 959.31 393.62C960.94 394.94 962.83 395.92 964.47 397.24C967.754 400.077 970.09 403.854 971.16 408.06C972.223 412.237 972.843 416.514 973.01 420.82C973.181 422.112 973.13 423.425 972.86 424.7C972.528 425.77 972.032 426.782 971.39 427.7C968.09 432.7 963.74 437.24 958.29 439.82C952.84 442.4 946.21 442.82 940.83 440.12C940.289 439.901 939.823 439.529 939.49 439.05C939.184 438.32 939.111 437.513 939.28 436.74C939.572 433.684 938.967 430.608 937.54 427.89C936.54 425.89 935.04 424.17 934.24 422.1C933.496 419.783 933.178 417.35 933.3 414.92C933.21 408.63 933.64 402.36 932.06 396.3Z" fill="#BBBBBB"/>
</g>
<defs>
<linearGradient id="paint0_linear_3_43" x1="1006.02" y1="551.76" x2="849.47" y2="551.76" gradientUnits="userSpaceOnUse">
<stop stop-color="#808080" stop-opacity="0.25"/>
<stop offset="0.54" stop-color="#808080" stop-opacity="0.12"/>
<stop offset="1" stop-color="#808080" stop-opacity="0.1"/>
</linearGradient>
<clipPath id="clip0_3_43">
<rect width="1113.58" height="784.41" fill="white"/>
</clipPath>
</defs>
</svg>
