<svg width="796" height="575" viewBox="0 0 796 575" fill="none" xmlns="http://www.w3.org/2000/svg">
<g clip-path="url(#clip0_2_2)">
<path d="M34.4706 289.428C43.0854 272.065 47.9577 256.942 45.3533 255.65C42.749 254.358 33.654 267.386 25.0392 284.748C16.4245 302.111 11.5521 317.233 14.1565 318.526C16.7608 319.818 25.8558 306.79 34.4706 289.428Z" fill="#E0E0E0"/>
<path d="M471.479 506.465C480.093 489.102 485.642 474.315 483.873 473.437C482.103 472.559 473.685 485.923 465.07 503.285C456.456 520.648 450.907 535.435 452.676 536.313C454.446 537.191 462.864 523.827 471.479 506.465Z" fill="#E0E0E0"/>
<path d="M236.643 418.691L220.406 405.284L175.715 459.407L191.952 472.814L236.643 418.691Z" fill="#FFE14D"/>
<path opacity="0.05" d="M199.304 477.132L222.368 482.554L238.432 414.228L215.369 408.805L199.304 477.132Z" fill="black"/>
<path d="M201.87 477.735L222.368 482.554L238.433 414.228L217.935 409.409L201.87 477.735Z" fill="#FFE14D"/>
<path d="M46.1333 254.078L13.3766 320.098L451.933 537.696L484.69 471.677L46.1333 254.078Z" fill="url(#paint0_linear_2_2)"/>
<path d="M452.713 536.124C444.129 532.006 7.86888 315.406 14.1564 318.526C38.3701 281.568 45.3533 255.65 45.3533 255.65L483.91 473.249C483.91 473.249 468.508 500.278 452.713 536.124Z" fill="#F5F5F5"/>
<path opacity="0.05" d="M273.277 368.739L237.124 350.801L205.927 413.676L242.08 431.614L273.277 368.739Z" fill="black"/>
<path d="M271.705 367.959L238.695 351.581L207.498 414.456L240.508 430.835L271.705 367.959Z" fill="#FFE14D"/>
<path opacity="0.05" d="M265.417 364.839L243.411 353.92L212.214 416.796L234.221 427.715L265.417 364.839Z" fill="black"/>
<path d="M263.846 364.059L244.983 354.7L213.786 417.576L232.649 426.935L263.846 364.059Z" fill="#FFE14D"/>
<path opacity="0.5" d="M261.306 566.851C262.921 566.851 264.231 565.541 264.231 563.925C264.231 562.309 262.921 560.999 261.306 560.999C259.69 560.999 258.38 562.309 258.38 563.925C258.38 565.541 259.69 566.851 261.306 566.851Z" fill="#57AFD1"/>
<g opacity="0.5">
<path d="M32.3943 482H29.3943V499H32.3943V482Z" fill="#8AD9F8"/>
<path d="M39.3943 492V489H22.3943V492H39.3943Z" fill="#8AD9F8"/>
</g>
<g opacity="0.5">
<path d="M788.394 270H785.394V287H788.394V270Z" fill="#8AD9F8"/>
<path d="M795.394 280V277H778.394V280H795.394Z" fill="#8AD9F8"/>
</g>
<g opacity="0.5">
<path d="M50.3943 59H47.3943V76H50.3943V59Z" fill="#8AD9F8"/>
<path d="M57.3943 69V66H40.3943V69H57.3943Z" fill="#8AD9F8"/>
</g>
<g opacity="0.5">
<path d="M698.394 33H695.394V50H698.394V33Z" fill="#8AD9F8"/>
<path d="M705.394 43V40H688.394V43H705.394Z" fill="#8AD9F8"/>
</g>
<path opacity="0.5" d="M12.2897 253.456C11.463 253.096 10.7975 252.445 10.42 251.626C10.0424 250.807 9.97917 249.878 10.2423 249.015C10.2848 248.883 10.3116 248.746 10.3222 248.608V248.608C10.3462 248.213 10.2423 247.82 10.0259 247.489C9.80955 247.157 9.49212 246.904 9.12069 246.767C8.74925 246.63 8.34356 246.616 7.96371 246.728C7.58385 246.84 7.25004 247.07 7.01171 247.387V247.387C6.92975 247.499 6.86131 247.62 6.80781 247.748C6.44775 248.575 5.79626 249.241 4.97736 249.618C4.15846 249.996 3.22933 250.059 2.36681 249.796C2.23458 249.753 2.09778 249.726 1.95927 249.716V249.716C1.5641 249.692 1.17169 249.796 0.840172 250.012C0.50865 250.229 0.255647 250.546 0.118629 250.917C-0.018388 251.289 -0.0321256 251.695 0.0794448 252.074C0.191015 252.454 0.421956 252.788 0.738075 253.026V253.026C0.850237 253.108 0.971677 253.177 1.09988 253.23C1.92661 253.59 2.5921 254.242 2.96964 255.061C3.34719 255.88 3.41044 256.809 3.14736 257.671C3.10479 257.804 3.07797 257.94 3.06745 258.079V258.079C3.04339 258.474 3.14727 258.866 3.36367 259.198C3.58007 259.529 3.89749 259.782 4.26893 259.92C4.64036 260.057 5.04606 260.07 5.42591 259.959C5.80577 259.847 6.13957 259.616 6.37791 259.3V259.3C6.45987 259.188 6.52831 259.066 6.58181 258.938C6.94187 258.112 7.59335 257.446 8.41225 257.068C9.23116 256.691 10.1603 256.628 11.0228 256.891C11.155 256.933 11.2918 256.96 11.4304 256.971V256.971C11.8255 256.995 12.2179 256.891 12.5495 256.674C12.881 256.458 13.134 256.141 13.271 255.769C13.408 255.398 13.4218 254.992 13.3102 254.612C13.1986 254.232 12.9677 253.899 12.6515 253.66C12.5394 253.578 12.4179 253.51 12.2897 253.456V253.456Z" fill="#57AFD1"/>
<path opacity="0.5" d="M184.29 56.4563C183.463 56.0962 182.797 55.4447 182.42 54.6258C182.042 53.8069 181.979 52.8778 182.242 52.0153C182.285 51.8831 182.312 51.7463 182.322 51.6077V51.6077C182.346 51.2126 182.242 50.8202 182.026 50.4886C181.809 50.1571 181.492 49.9041 181.121 49.7671C180.749 49.6301 180.343 49.6163 179.964 49.7279C179.584 49.8395 179.25 50.0704 179.012 50.3865V50.3865C178.93 50.4987 178.861 50.6201 178.808 50.7483C178.448 51.5751 177.796 52.2406 176.977 52.6181C176.158 52.9957 175.229 53.0589 174.367 52.7958C174.234 52.7533 174.098 52.7264 173.959 52.7159V52.7159C173.564 52.6919 173.172 52.7957 172.84 53.0121C172.509 53.2285 172.256 53.546 172.119 53.9174C171.981 54.2888 171.968 54.6945 172.079 55.0744C172.191 55.4542 172.422 55.788 172.738 56.0264V56.0264C172.85 56.1083 172.972 56.1768 173.1 56.2303C173.927 56.5903 174.592 57.2418 174.97 58.0607C175.347 58.8796 175.41 59.8087 175.147 60.6713C175.105 60.8035 175.078 60.9403 175.067 61.0788V61.0788C175.043 61.474 175.147 61.8664 175.364 62.1979C175.58 62.5294 175.897 62.7825 176.269 62.9195C176.64 63.0565 177.046 63.0702 177.426 62.9587C177.806 62.8471 178.139 62.6161 178.378 62.3C178.46 62.1878 178.528 62.0664 178.582 61.9382C178.942 61.1115 179.593 60.446 180.412 60.0684C181.231 59.6909 182.16 59.6276 183.023 59.8907C183.155 59.9333 183.292 59.9601 183.43 59.9706V59.9706C183.825 59.9947 184.218 59.8908 184.549 59.6744C184.881 59.458 185.134 59.1406 185.271 58.7691C185.408 58.3977 185.422 57.992 185.31 57.6122C185.199 57.2323 184.968 56.8985 184.651 56.6602V56.6602C184.539 56.5782 184.418 56.5098 184.29 56.4563V56.4563Z" fill="#57AFD1"/>
<path opacity="0.5" d="M394.29 567.456C393.463 567.096 392.797 566.445 392.42 565.626C392.042 564.807 391.979 563.878 392.242 563.015C392.285 562.883 392.312 562.746 392.322 562.608V562.608C392.346 562.213 392.242 561.82 392.026 561.489C391.809 561.157 391.492 560.904 391.121 560.767C390.749 560.63 390.343 560.616 389.964 560.728C389.584 560.839 389.25 561.07 389.012 561.387C388.93 561.499 388.861 561.62 388.808 561.748C388.448 562.575 387.796 563.241 386.977 563.618C386.158 563.996 385.229 564.059 384.367 563.796C384.234 563.753 384.098 563.726 383.959 563.716V563.716C383.564 563.692 383.172 563.796 382.84 564.012C382.509 564.229 382.256 564.546 382.119 564.917C381.981 565.289 381.968 565.695 382.079 566.074C382.191 566.454 382.422 566.788 382.738 567.026C382.85 567.108 382.972 567.177 383.1 567.23C383.927 567.59 384.592 568.242 384.97 569.061C385.347 569.88 385.41 570.809 385.147 571.671C385.105 571.803 385.078 571.94 385.067 572.079V572.079C385.043 572.474 385.147 572.866 385.364 573.198C385.58 573.529 385.897 573.782 386.269 573.919C386.64 574.056 387.046 574.07 387.426 573.959C387.806 573.847 388.139 573.616 388.378 573.3V573.3C388.46 573.188 388.528 573.066 388.582 572.938C388.942 572.111 389.593 571.446 390.412 571.068C391.231 570.691 392.16 570.628 393.023 570.891C393.155 570.933 393.292 570.96 393.43 570.971V570.971C393.825 570.995 394.218 570.891 394.549 570.674C394.881 570.458 395.134 570.141 395.271 569.769C395.408 569.398 395.422 568.992 395.31 568.612C395.199 568.232 394.968 567.898 394.651 567.66V567.66C394.539 567.578 394.418 567.51 394.29 567.456V567.456Z" fill="#57AFD1"/>
<path opacity="0.5" d="M759.394 450C762.708 450 765.394 447.314 765.394 444C765.394 440.686 762.708 438 759.394 438C756.081 438 753.394 440.686 753.394 444C753.394 447.314 756.081 450 759.394 450Z" fill="#FFE14D"/>
<path opacity="0.5" d="M627.394 488C630.708 488 633.394 485.314 633.394 482C633.394 478.686 630.708 476 627.394 476C624.081 476 621.394 478.686 621.394 482C621.394 485.314 624.081 488 627.394 488Z" fill="#57AFD1"/>
<path opacity="0.5" d="M103.394 547C106.708 547 109.394 544.314 109.394 541C109.394 537.686 106.708 535 103.394 535C100.081 535 97.3943 537.686 97.3943 541C97.3943 544.314 100.081 547 103.394 547Z" fill="#57AFD1"/>
<path opacity="0.5" d="M411.394 12C414.708 12 417.394 9.31371 417.394 6C417.394 2.68629 414.708 0 411.394 0C408.081 0 405.394 2.68629 405.394 6C405.394 9.31371 408.081 12 411.394 12Z" fill="#FFE14D"/>
<path d="M204.894 357.5L180.894 393.5C180.894 393.5 188.894 430.5 365.894 429.5C542.894 428.5 556.894 393.5 556.894 393.5L523.894 345.5L422.894 276.5L204.894 357.5Z" fill="#2F81A0"/>
<path opacity="0.15" d="M204.894 357.5L180.894 393.5C180.894 393.5 188.894 430.5 365.894 429.5C542.894 428.5 556.894 393.5 556.894 393.5L523.894 345.5L422.894 276.5L204.894 357.5Z" fill="black"/>
<path d="M715.394 224L400.394 363L16.394 224L368.394 64L541.184 143.67L547.374 146.53L715.394 224Z" fill="#2F81A0"/>
<path opacity="0.15" d="M16.394 224L368.394 64L541.184 143.67L547.374 146.53L715.394 224L400.394 363L16.394 224Z" fill="black"/>
<path d="M553.894 257.32L547.894 257.68L541.184 143.67L547.374 146.53L553.894 257.32Z" fill="#F5F5F5"/>
<path d="M208.894 223.5L180.894 393.5C180.894 393.5 381.894 328.5 556.894 393.5L530.894 213.5C530.894 213.5 295.894 184.5 208.894 223.5Z" fill="#87D9F7"/>
<path d="M553.394 292C569.411 292 582.394 283.046 582.394 272C582.394 260.954 569.411 252 553.394 252C537.378 252 524.394 260.954 524.394 272C524.394 283.046 537.378 292 553.394 292Z" fill="#F5F5F5"/>
</g>
<defs>
<linearGradient id="paint0_linear_2_2" x1="232.655" y1="428.897" x2="265.411" y2="362.877" gradientUnits="userSpaceOnUse">
<stop stop-color="#808080" stop-opacity="0.25"/>
<stop offset="0.53514" stop-color="#808080" stop-opacity="0.12"/>
<stop offset="1" stop-color="#808080" stop-opacity="0.1"/>
</linearGradient>
<clipPath id="clip0_2_2">
<rect width="795.394" height="574.038" fill="white"/>
</clipPath>
</defs>
</svg>
